<svg width="254" height="234" viewBox="0 0 254 234" fill="none" xmlns="http://www.w3.org/2000/svg">
<g clip-path="url(#clip0_440_911)">
<rect width="254" height="234" fill="white"/>
<circle cx="1.5" cy="12.5" r="4.5" fill="#09DFFD"/>
<circle cx="19.5" cy="12.5" r="4.5" fill="#09DFFD"/>
<circle cx="37.5" cy="12.5" r="4.5" fill="#09DFFD"/>
<circle cx="55.5" cy="12.5" r="4.5" fill="#09DFFD"/>
<circle cx="73.5" cy="12.5" r="4.5" fill="#09DFFD"/>
<circle cx="91.5" cy="12.5" r="4.5" fill="#09DFFD"/>
<circle cx="109.5" cy="12.5" r="4.5" fill="#09DFFD"/>
<circle cx="127.5" cy="12.5" r="4.5" fill="#09DFFD"/>
<circle cx="145.5" cy="12.5" r="4.5" fill="#09DFFD"/>
<circle cx="163.5" cy="12.5" r="4.5" fill="#09DFFD"/>
<circle cx="181.5" cy="12.5" r="4.5" fill="#09DFFD"/>
<circle cx="199.5" cy="12.5" r="4.5" fill="#09DFFD"/>
<circle cx="217.5" cy="12.5" r="4.5" fill="#09DFFD"/>
<circle cx="235.5" cy="12.5" r="4.5" fill="#09DFFD"/>
<circle cx="253.5" cy="12.5" r="4.5" fill="#09DFFD"/>
<circle cx="10.5" cy="27.5" r="4.5" fill="#09DFFD"/>
<circle cx="28.5" cy="27.5" r="4.5" fill="#09DFFD"/>
<circle cx="46.5" cy="27.5" r="4.5" fill="#09DFFD"/>
<circle cx="64.5" cy="27.5" r="4.5" fill="#09DFFD"/>
<circle cx="82.5" cy="27.5" r="4.5" fill="#09DFFD"/>
<circle cx="100.5" cy="27.5" r="4.5" fill="#09DFFD"/>
<circle cx="118.5" cy="27.5" r="4.5" fill="#09DFFD"/>
<circle cx="136.5" cy="27.5" r="4.5" fill="#09DFFD"/>
<circle cx="154.5" cy="27.5" r="4.5" fill="#09DFFD"/>
<circle cx="172.5" cy="27.5" r="4.5" fill="#09DFFD"/>
<circle cx="190.5" cy="27.5" r="4.5" fill="#09DFFD"/>
<circle cx="208.5" cy="27.5" r="4.5" fill="#09DFFD"/>
<circle cx="226.5" cy="27.5" r="4.5" fill="#09DFFD"/>
<circle cx="244.5" cy="27.5" r="4.5" fill="#09DFFD"/>
<circle cx="1.5" cy="42.5" r="4.5" fill="#09DFFD"/>
<circle cx="19.5" cy="42.5" r="4.5" fill="#09DFFD"/>
<circle cx="37.5" cy="42.5" r="4.5" fill="#09DFFD"/>
<circle cx="55.5" cy="42.5" r="4.5" fill="#09DFFD"/>
<circle cx="73.5" cy="42.5" r="4.5" fill="#09DFFD"/>
<circle cx="91.5" cy="42.5" r="4.5" fill="#09DFFD"/>
<circle cx="109.5" cy="42.5" r="4.5" fill="#09DFFD"/>
<circle cx="127.5" cy="42.5" r="4.5" fill="#09DFFD"/>
<circle cx="145.5" cy="42.5" r="4.5" fill="#09DFFD"/>
<circle cx="163.5" cy="42.5" r="4.5" fill="#09DFFD"/>
<circle cx="181.5" cy="42.5" r="4.5" fill="#09DFFD"/>
<circle cx="199.5" cy="42.5" r="4.5" fill="#09DFFD"/>
<circle cx="217.5" cy="42.5" r="4.5" fill="#09DFFD"/>
<circle cx="235.5" cy="42.5" r="4.5" fill="#09DFFD"/>
<circle cx="253.5" cy="42.5" r="4.5" fill="#09DFFD"/>
<circle cx="10.5" cy="57.5" r="4.5" fill="#09DFFD"/>
<circle cx="28.5" cy="57.5" r="4.5" fill="#09DFFD"/>
<circle cx="46.5" cy="57.5" r="4.5" fill="#09DFFD"/>
<circle cx="64.5" cy="57.5" r="4.5" fill="#09DFFD"/>
<circle cx="82.5" cy="57.5" r="4.5" fill="#09DFFD"/>
<circle cx="100.5" cy="57.5" r="4.5" fill="#09DFFD"/>
<circle cx="118.5" cy="57.5" r="4.5" fill="#09DFFD"/>
<circle cx="136.5" cy="57.5" r="4.5" fill="#09DFFD"/>
<circle cx="154.5" cy="57.5" r="4.5" fill="#09DFFD"/>
<circle cx="172.5" cy="57.5" r="4.5" fill="#09DFFD"/>
<circle cx="190.5" cy="57.5" r="4.5" fill="#09DFFD"/>
<circle cx="208.5" cy="57.5" r="4.5" fill="#09DFFD"/>
<circle cx="226.5" cy="57.5" r="4.5" fill="#09DFFD"/>
<circle cx="244.5" cy="57.5" r="4.5" fill="#09DFFD"/>
<circle cx="1.5" cy="72.5" r="4.5" fill="#09DFFD"/>
<circle cx="19.5" cy="72.5" r="4.5" fill="#09DFFD"/>
<circle cx="37.5" cy="72.5" r="4.5" fill="#09DFFD"/>
<circle cx="55.5" cy="72.5" r="4.5" fill="#09DFFD"/>
<circle cx="73.5" cy="72.5" r="4.5" fill="#09DFFD"/>
<circle cx="91.5" cy="72.5" r="4.5" fill="#09DFFD"/>
<circle cx="109.5" cy="72.5" r="4.5" fill="#09DFFD"/>
<circle cx="127.5" cy="72.5" r="4.5" fill="#09DFFD"/>
<circle cx="145.5" cy="72.5" r="4.5" fill="#09DFFD"/>
<circle cx="163.5" cy="72.5" r="4.5" fill="#09DFFD"/>
<circle cx="181.5" cy="72.5" r="4.5" fill="#09DFFD"/>
<circle cx="199.5" cy="72.5" r="4.5" fill="#09DFFD"/>
<circle cx="217.5" cy="72.5" r="4.5" fill="#09DFFD"/>
<circle cx="235.5" cy="72.5" r="4.5" fill="#09DFFD"/>
<circle cx="253.5" cy="72.5" r="4.5" fill="#09DFFD"/>
<circle cx="11.5" cy="87.5" r="4.5" fill="#09DFFD"/>
<circle cx="29.5" cy="87.5" r="4.5" fill="#09DFFD"/>
<circle cx="47.5" cy="87.5" r="4.5" fill="#09DFFD"/>
<circle cx="65.5" cy="87.5" r="4.5" fill="#09DFFD"/>
<circle cx="83.5" cy="87.5" r="4.5" fill="#09DFFD"/>
<circle cx="101.5" cy="87.5" r="4.5" fill="#09DFFD"/>
<circle cx="119.5" cy="87.5" r="4.5" fill="#09DFFD"/>
<circle cx="137.5" cy="87.5" r="4.5" fill="#09DFFD"/>
<circle cx="155.5" cy="87.5" r="4.5" fill="#09DFFD"/>
<circle cx="173.5" cy="87.5" r="4.5" fill="#09DFFD"/>
<circle cx="191.5" cy="87.5" r="4.5" fill="#09DFFD"/>
<circle cx="209.5" cy="87.5" r="4.5" fill="#09DFFD"/>
<circle cx="227.5" cy="87.5" r="4.5" fill="#09DFFD"/>
<circle cx="245.5" cy="87.5" r="4.5" fill="#09DFFD"/>
<circle cx="2.5" cy="102.5" r="4.5" fill="#09DFFD"/>
<circle cx="20.5" cy="102.5" r="4.5" fill="#09DFFD"/>
<circle cx="38.5" cy="102.5" r="4.5" fill="#09DFFD"/>
<circle cx="56.5" cy="102.5" r="4.5" fill="#09DFFD"/>
<circle cx="74.5" cy="102.5" r="4.5" fill="#09DFFD"/>
<circle cx="92.5" cy="102.5" r="4.5" fill="#09DFFD"/>
<circle cx="110.5" cy="102.5" r="4.5" fill="#09DFFD"/>
<circle cx="128.5" cy="102.5" r="4.5" fill="#09DFFD"/>
<circle cx="146.5" cy="102.5" r="4.5" fill="#09DFFD"/>
<circle cx="164.5" cy="102.5" r="4.5" fill="#09DFFD"/>
<circle cx="182.5" cy="102.5" r="4.5" fill="#09DFFD"/>
<circle cx="200.5" cy="102.5" r="4.5" fill="#09DFFD"/>
<circle cx="218.5" cy="102.5" r="4.5" fill="#09DFFD"/>
<circle cx="236.5" cy="102.5" r="4.5" fill="#09DFFD"/>
<circle cx="254.5" cy="102.5" r="4.5" fill="#09DFFD"/>
<circle cx="11.5" cy="117.5" r="4.5" fill="#09DFFD"/>
<circle cx="29.5" cy="117.5" r="4.5" fill="#09DFFD"/>
<circle cx="47.5" cy="117.5" r="4.5" fill="#09DFFD"/>
<circle cx="65.5" cy="117.5" r="4.5" fill="#09DFFD"/>
<circle cx="83.5" cy="117.5" r="4.5" fill="#09DFFD"/>
<circle cx="101.5" cy="117.5" r="4.5" fill="#09DFFD"/>
<circle cx="119.5" cy="117.5" r="4.5" fill="#09DFFD"/>
<circle cx="137.5" cy="117.5" r="4.5" fill="#09DFFD"/>
<circle cx="155.5" cy="117.5" r="4.5" fill="#09DFFD"/>
<circle cx="173.5" cy="117.5" r="4.5" fill="#09DFFD"/>
<circle cx="191.5" cy="117.5" r="4.5" fill="#09DFFD"/>
<circle cx="209.5" cy="117.5" r="4.5" fill="#09DFFD"/>
<circle cx="227.5" cy="117.5" r="4.5" fill="#09DFFD"/>
<circle cx="245.5" cy="117.5" r="4.5" fill="#09DFFD"/>
<circle cx="3.5" cy="132.5" r="4.5" fill="#09DFFD"/>
<circle cx="21.5" cy="132.5" r="4.5" fill="#09DFFD"/>
<circle cx="39.5" cy="132.5" r="4.5" fill="#09DFFD"/>
<circle cx="57.5" cy="132.5" r="4.5" fill="#09DFFD"/>
<circle cx="75.5" cy="132.5" r="4.5" fill="#09DFFD"/>
<circle cx="93.5" cy="132.5" r="4.5" fill="#09DFFD"/>
<circle cx="111.5" cy="132.5" r="4.5" fill="#09DFFD"/>
<circle cx="129.5" cy="132.5" r="4.5" fill="#09DFFD"/>
<circle cx="147.5" cy="132.5" r="4.5" fill="#09DFFD"/>
<circle cx="165.5" cy="132.5" r="4.5" fill="#09DFFD"/>
<circle cx="183.5" cy="132.5" r="4.5" fill="#09DFFD"/>
<circle cx="201.5" cy="132.5" r="4.5" fill="#09DFFD"/>
<circle cx="219.5" cy="132.5" r="4.5" fill="#09DFFD"/>
<circle cx="237.5" cy="132.5" r="4.5" fill="#09DFFD"/>
<circle cx="255.5" cy="132.5" r="4.5" fill="#09DFFD"/>
<circle cx="11.5" cy="147.5" r="4.5" fill="#09DFFD"/>
<circle cx="29.5" cy="147.5" r="4.5" fill="#09DFFD"/>
<circle cx="47.5" cy="147.5" r="4.5" fill="#09DFFD"/>
<circle cx="65.5" cy="147.5" r="4.5" fill="#09DFFD"/>
<circle cx="83.5" cy="147.5" r="4.5" fill="#09DFFD"/>
<circle cx="101.5" cy="147.5" r="4.5" fill="#09DFFD"/>
<circle cx="119.5" cy="147.5" r="4.5" fill="#09DFFD"/>
<circle cx="137.5" cy="147.5" r="4.5" fill="#09DFFD"/>
<circle cx="155.5" cy="147.5" r="4.5" fill="#09DFFD"/>
<circle cx="173.5" cy="147.5" r="4.5" fill="#09DFFD"/>
<circle cx="191.5" cy="147.5" r="4.5" fill="#09DFFD"/>
<circle cx="209.5" cy="147.5" r="4.5" fill="#09DFFD"/>
<circle cx="227.5" cy="147.5" r="4.5" fill="#09DFFD"/>
<circle cx="245.5" cy="147.5" r="4.5" fill="#09DFFD"/>
<circle cx="2.5" cy="162.5" r="4.5" fill="#09DFFD"/>
<circle cx="20.5" cy="162.5" r="4.5" fill="#09DFFD"/>
<circle cx="38.5" cy="162.5" r="4.5" fill="#09DFFD"/>
<circle cx="56.5" cy="162.5" r="4.5" fill="#09DFFD"/>
<circle cx="74.5" cy="162.5" r="4.5" fill="#09DFFD"/>
<circle cx="92.5" cy="162.5" r="4.5" fill="#09DFFD"/>
<circle cx="110.5" cy="162.5" r="4.5" fill="#09DFFD"/>
<circle cx="128.5" cy="162.5" r="4.5" fill="#09DFFD"/>
<circle cx="146.5" cy="162.5" r="4.5" fill="#09DFFD"/>
<circle cx="164.5" cy="162.5" r="4.5" fill="#09DFFD"/>
<circle cx="182.5" cy="162.5" r="4.5" fill="#09DFFD"/>
<circle cx="200.5" cy="162.5" r="4.5" fill="#09DFFD"/>
<circle cx="218.5" cy="162.5" r="4.5" fill="#09DFFD"/>
<circle cx="236.5" cy="162.5" r="4.5" fill="#09DFFD"/>
<circle cx="254.5" cy="162.5" r="4.5" fill="#09DFFD"/>
<circle cx="11.5" cy="177.5" r="4.5" fill="#09DFFD"/>
<circle cx="29.5" cy="177.5" r="4.5" fill="#09DFFD"/>
<circle cx="47.5" cy="177.5" r="4.5" fill="#09DFFD"/>
<circle cx="65.5" cy="177.5" r="4.5" fill="#09DFFD"/>
<circle cx="83.5" cy="177.5" r="4.5" fill="#09DFFD"/>
<circle cx="101.5" cy="177.5" r="4.5" fill="#09DFFD"/>
<circle cx="119.5" cy="177.5" r="4.5" fill="#09DFFD"/>
<circle cx="137.5" cy="177.5" r="4.5" fill="#09DFFD"/>
<circle cx="155.5" cy="177.5" r="4.5" fill="#09DFFD"/>
<circle cx="173.5" cy="177.5" r="4.5" fill="#09DFFD"/>
<circle cx="191.5" cy="177.5" r="4.5" fill="#09DFFD"/>
<circle cx="209.5" cy="177.5" r="4.5" fill="#09DFFD"/>
<circle cx="227.5" cy="177.5" r="4.5" fill="#09DFFD"/>
<circle cx="245.5" cy="177.5" r="4.5" fill="#09DFFD"/>
<circle cx="3.5" cy="192.5" r="4.5" fill="#09DFFD"/>
<circle cx="21.5" cy="192.5" r="4.5" fill="#09DFFD"/>
<circle cx="39.5" cy="192.5" r="4.5" fill="#09DFFD"/>
<circle cx="57.5" cy="192.5" r="4.5" fill="#09DFFD"/>
<circle cx="75.5" cy="192.5" r="4.5" fill="#09DFFD"/>
<circle cx="93.5" cy="192.5" r="4.5" fill="#09DFFD"/>
<circle cx="111.5" cy="192.5" r="4.5" fill="#09DFFD"/>
<circle cx="129.5" cy="192.5" r="4.5" fill="#09DFFD"/>
<circle cx="147.5" cy="192.5" r="4.5" fill="#09DFFD"/>
<circle cx="165.5" cy="192.5" r="4.5" fill="#09DFFD"/>
<circle cx="183.5" cy="192.5" r="4.5" fill="#09DFFD"/>
<circle cx="201.5" cy="192.5" r="4.5" fill="#09DFFD"/>
<circle cx="219.5" cy="192.5" r="4.5" fill="#09DFFD"/>
<circle cx="237.5" cy="192.5" r="4.5" fill="#09DFFD"/>
<circle cx="255.5" cy="192.5" r="4.5" fill="#09DFFD"/>
<circle cx="11.5" cy="207.5" r="4.5" fill="#09DFFD"/>
<circle cx="29.5" cy="207.5" r="4.5" fill="#09DFFD"/>
<circle cx="47.5" cy="207.5" r="4.5" fill="#09DFFD"/>
<circle cx="65.5" cy="207.5" r="4.5" fill="#09DFFD"/>
<circle cx="83.5" cy="207.5" r="4.5" fill="#09DFFD"/>
<circle cx="101.5" cy="207.5" r="4.5" fill="#09DFFD"/>
<circle cx="119.5" cy="207.5" r="4.5" fill="#09DFFD"/>
<circle cx="137.5" cy="207.5" r="4.5" fill="#09DFFD"/>
<circle cx="155.5" cy="207.5" r="4.5" fill="#09DFFD"/>
<circle cx="173.5" cy="207.5" r="4.5" fill="#09DFFD"/>
<circle cx="191.5" cy="207.5" r="4.5" fill="#09DFFD"/>
<circle cx="209.5" cy="207.5" r="4.5" fill="#09DFFD"/>
<circle cx="227.5" cy="207.5" r="4.5" fill="#09DFFD"/>
<circle cx="245.5" cy="207.5" r="4.5" fill="#09DFFD"/>
<circle cx="2.5" cy="222.5" r="4.5" fill="#09DFFD"/>
<circle cx="20.5" cy="222.5" r="4.5" fill="#09DFFD"/>
<circle cx="38.5" cy="222.5" r="4.5" fill="#09DFFD"/>
<circle cx="56.5" cy="222.5" r="4.5" fill="#09DFFD"/>
<circle cx="74.5" cy="222.5" r="4.5" fill="#09DFFD"/>
<circle cx="92.5" cy="222.5" r="4.5" fill="#09DFFD"/>
<circle cx="110.5" cy="222.5" r="4.5" fill="#09DFFD"/>
<circle cx="128.5" cy="222.5" r="4.5" fill="#09DFFD"/>
<circle cx="146.5" cy="222.5" r="4.5" fill="#09DFFD"/>
<circle cx="164.5" cy="222.5" r="4.5" fill="#09DFFD"/>
<circle cx="182.5" cy="222.5" r="4.5" fill="#09DFFD"/>
<circle cx="200.5" cy="222.5" r="4.5" fill="#09DFFD"/>
<circle cx="218.5" cy="222.5" r="4.5" fill="#09DFFD"/>
<circle cx="236.5" cy="222.5" r="4.5" fill="#09DFFD"/>
<circle cx="254.5" cy="222.5" r="4.5" fill="#09DFFD"/>
</g>
<defs>
<clipPath id="clip0_440_911">
<rect width="254" height="234" fill="white"/>
</clipPath>
</defs>
</svg>
