<svg width="30" height="30" viewBox="0 0 30 30" fill="none" xmlns="http://www.w3.org/2000/svg">
<g clip-path="url(#clip0_228_1116)">
<path fill-rule="evenodd" clip-rule="evenodd" d="M9.40998 11.9212C8.07898 11.9212 7 10.8936 7 9.62597C7 8.35835 8.07898 7.33075 9.40998 7.33075C10.741 7.33075 11.82 8.35835 11.82 9.62597C11.82 10.8936 10.741 11.9212 9.40998 11.9212Z" fill="#09DFFD"/>
<path fill-rule="evenodd" clip-rule="evenodd" d="M9.41012 17.6857C8.07913 17.6857 7.00014 16.6582 7.00014 15.3906C7.00014 14.123 8.07913 13.0954 9.41012 13.0954C10.7411 13.0954 11.8201 14.123 11.8201 15.3906C11.8201 16.6582 10.7411 17.6857 9.41012 17.6857Z" fill="#09DFFD"/>
<path fill-rule="evenodd" clip-rule="evenodd" d="M9.41012 23.6641C8.07913 23.6641 7.00014 22.6365 7.00014 21.3689C7.00014 20.1013 8.07913 19.0737 9.41012 19.0737C10.7411 19.0737 11.8201 20.1013 11.8201 21.3689C11.8201 22.6365 10.7411 23.6641 9.41012 23.6641Z" fill="#09DFFD"/>
<path fill-rule="evenodd" clip-rule="evenodd" d="M15.6871 17.6857C14.3562 17.6857 13.2772 16.6582 13.2772 15.3906C13.2772 14.123 14.3562 13.0954 15.6871 13.0954C17.0181 13.0954 18.0971 14.123 18.0971 15.3906C18.0971 16.6582 17.0181 17.6857 15.6871 17.6857Z" fill="#09DFFD"/>
<path fill-rule="evenodd" clip-rule="evenodd" d="M15.6871 23.6641C14.3562 23.6641 13.2772 22.6365 13.2772 21.3689C13.2772 20.1013 14.3562 19.0737 15.6871 19.0737C17.0181 19.0737 18.0971 20.1013 18.0971 21.3689C18.0971 22.6365 17.0181 23.6641 15.6871 23.6641Z" fill="#09DFFD"/>
<path fill-rule="evenodd" clip-rule="evenodd" d="M21.7403 23.6641C20.4093 23.6641 19.3303 22.6365 19.3303 21.3689C19.3303 20.1013 20.4093 19.0737 21.7403 19.0737C23.0713 19.0737 24.1503 20.1013 24.1503 21.3689C24.1503 22.6365 23.0713 23.6641 21.7403 23.6641Z" fill="#09DFFD"/>
<path d="M38.7663 22.7253C37.9232 22.7253 37.1522 22.5126 36.4534 22.0872C35.7623 21.6619 35.2116 21.0922 34.8014 20.3783C34.3989 19.6567 34.1976 18.8554 34.1976 17.9743L34.2204 10.694C34.2204 9.82813 34.4179 9.04579 34.8128 8.34701C35.2078 7.64063 35.7509 7.07476 36.4421 6.64941C37.1408 6.21647 37.9156 6 38.7663 6C39.6322 6 40.4031 6.20888 41.0791 6.62663C41.7627 7.04438 42.3058 7.61024 42.7083 8.32422C43.1185 9.0306 43.3236 9.82053 43.3236 10.694V11.765C43.3236 11.8257 43.2932 11.8561 43.2324 11.8561H40.612C40.5512 11.8561 40.5208 11.8257 40.5208 11.765V10.694C40.5208 10.1775 40.3537 9.73318 40.0195 9.361C39.6853 8.98882 39.2676 8.80273 38.7663 8.80273C38.2118 8.80273 37.7865 8.99262 37.4902 9.3724C37.194 9.75217 37.0459 10.1927 37.0459 10.694V17.9743C37.0459 18.5439 37.213 19.0111 37.5472 19.3757C37.8814 19.7326 38.2878 19.9111 38.7663 19.9111C39.2676 19.9111 39.6853 19.7137 40.0195 19.3187C40.3537 18.9161 40.5208 18.468 40.5208 17.9743V16.8919C40.5208 16.8312 40.5512 16.8008 40.612 16.8008H43.2552C43.316 16.8008 43.3464 16.8312 43.3464 16.8919V17.9743C43.3464 18.8478 43.1413 19.6453 42.7311 20.3669C42.3134 21.0808 41.7627 21.6543 41.0791 22.0872C40.3955 22.5126 39.6246 22.7253 38.7663 22.7253Z" fill="white"/>
<path d="M49.8783 22.4974H47.2351C47.1743 22.4974 47.1439 22.4594 47.1439 22.3835L47.1895 6.35319C47.1895 6.29243 47.2199 6.26204 47.2807 6.26204H51.9975C52.8406 6.26204 53.6153 6.46712 54.3217 6.87728C55.0281 7.28744 55.5901 7.83811 56.0079 8.5293C56.4332 9.22049 56.6459 10.0028 56.6459 10.8763C56.6459 11.446 56.5586 11.9625 56.3839 12.4258C56.2092 12.8891 56.0041 13.2803 55.7686 13.5993C55.5408 13.9183 55.3319 14.1538 55.142 14.3057C55.9851 15.2399 56.4066 16.3375 56.4066 17.5983L56.4294 22.3835C56.4294 22.4594 56.3914 22.4974 56.3155 22.4974H53.6723C53.6115 22.4974 53.5811 22.4746 53.5811 22.429V17.5983C53.5811 17.0362 53.3836 16.5501 52.9887 16.14C52.5937 15.7298 52.1076 15.5247 51.5303 15.5247H49.9923L49.9695 22.3835C49.9695 22.4594 49.9391 22.4974 49.8783 22.4974ZM51.9975 9.05339H49.9923V12.722H51.9975C52.476 12.722 52.9013 12.5435 53.2735 12.1865C53.6533 11.8295 53.8432 11.3928 53.8432 10.8763C53.8432 10.3826 53.6609 9.95725 53.2963 9.60026C52.9317 9.23568 52.4988 9.05339 51.9975 9.05339Z" fill="white"/>
<path d="M68.1339 22.4974H60.5916C60.5308 22.4974 60.5005 22.4594 60.5005 22.3835L60.5232 6.35319C60.5232 6.29243 60.5536 6.26204 60.6144 6.26204H68.1111C68.1719 6.26204 68.2023 6.30002 68.2023 6.37598V8.98503C68.2023 9.04579 68.1719 9.07617 68.1111 9.07617H63.326V12.722H68.1111C68.1719 12.722 68.2023 12.7524 68.2023 12.8132L68.2251 15.4564C68.2251 15.5171 68.1947 15.5475 68.1339 15.5475H63.326V19.6263H68.1339C68.1947 19.6263 68.2251 19.6643 68.2251 19.7402V22.4063C68.2251 22.467 68.1947 22.4974 68.1339 22.4974Z" fill="white"/>
<path d="M71.6125 22.3835L74.5064 6.35319C74.5216 6.29243 74.5596 6.26204 74.6203 6.26204H78.0041C78.0649 6.26204 78.1028 6.29243 78.118 6.35319L80.898 22.3835C80.9056 22.4594 80.8752 22.4974 80.8068 22.4974H78.2206C78.1446 22.4974 78.1028 22.4594 78.0953 22.3835L77.8446 20.6745H74.6659L74.4152 22.3835C74.4076 22.4594 74.3697 22.4974 74.3013 22.4974H71.7037C71.6429 22.4974 71.6125 22.4594 71.6125 22.3835ZM76.1812 11.6283L75.133 18.1794H77.3775L76.4204 11.6283L76.2837 10.7624L76.1812 11.6283Z" fill="white"/>
<path d="M89.4352 22.4974H86.8033C86.735 22.4974 86.7008 22.4594 86.7008 22.3835V9.07617H83.6702C83.5942 9.07617 83.5563 9.03819 83.5563 8.96224L83.579 6.35319C83.579 6.29243 83.6094 6.26204 83.6702 6.26204H92.5341C92.6177 6.26204 92.6594 6.29243 92.6594 6.35319V8.96224C92.6594 9.03819 92.6291 9.07617 92.5683 9.07617H89.5035L89.5263 22.3835C89.5263 22.4594 89.4959 22.4974 89.4352 22.4974Z" fill="white"/>
<path d="M98.6559 22.4974H96.0127C95.9367 22.4974 95.8988 22.4594 95.8988 22.3835L95.9216 6.35319C95.9216 6.29243 95.9519 6.26204 96.0127 6.26204H98.6331C98.6939 6.26204 98.7243 6.29243 98.7243 6.35319L98.7471 22.3835C98.7471 22.4594 98.7167 22.4974 98.6559 22.4974Z" fill="white"/>
<path d="M108.344 22.4974H105.518C105.45 22.4974 105.412 22.4594 105.404 22.3835L102.18 6.35319C102.165 6.29243 102.195 6.26204 102.271 6.26204H104.914C104.975 6.26204 105.013 6.29243 105.028 6.35319L106.942 17.04L108.811 6.35319C108.826 6.29243 108.864 6.26204 108.925 6.26204H111.534C111.617 6.26204 111.648 6.29243 111.625 6.35319L108.458 22.3835C108.45 22.4594 108.412 22.4974 108.344 22.4974Z" fill="white"/>
<path d="M122.726 22.4974H115.183C115.123 22.4974 115.092 22.4594 115.092 22.3835L115.115 6.35319C115.115 6.29243 115.145 6.26204 115.206 6.26204H122.703C122.764 6.26204 122.794 6.30002 122.794 6.37598V8.98503C122.794 9.04579 122.764 9.07617 122.703 9.07617H117.918V12.722H122.703C122.764 12.722 122.794 12.7524 122.794 12.8132L122.817 15.4564C122.817 15.5171 122.786 15.5475 122.726 15.5475H117.918V19.6263H122.726C122.786 19.6263 122.817 19.6643 122.817 19.7402V22.4063C122.817 22.467 122.786 22.4974 122.726 22.4974Z" fill="white"/>
<path d="M139.447 22.7253C138.604 22.7253 137.833 22.5126 137.134 22.0872C136.443 21.6619 135.892 21.0922 135.482 20.3783C135.079 19.6567 134.878 18.8554 134.878 17.9743L134.901 10.694C134.901 9.82813 135.098 9.04579 135.493 8.34701C135.888 7.64063 136.431 7.07476 137.123 6.64941C137.821 6.21647 138.596 6 139.447 6C140.313 6 141.084 6.20888 141.76 6.62663C142.443 7.04438 142.986 7.61024 143.389 8.32422C143.799 9.0306 144.004 9.82053 144.004 10.694V11.765C144.004 11.8257 143.974 11.8561 143.913 11.8561H141.293C141.232 11.8561 141.201 11.8257 141.201 11.765V10.694C141.201 10.1775 141.034 9.73318 140.7 9.361C140.366 8.98882 139.948 8.80273 139.447 8.80273C138.892 8.80273 138.467 8.99262 138.171 9.3724C137.875 9.75217 137.727 10.1927 137.727 10.694V17.9743C137.727 18.5439 137.894 19.0111 138.228 19.3757C138.562 19.7326 138.968 19.9111 139.447 19.9111C139.948 19.9111 140.366 19.7137 140.7 19.3187C141.034 18.9161 141.201 18.468 141.201 17.9743V16.8919C141.201 16.8312 141.232 16.8008 141.293 16.8008H143.936C143.997 16.8008 144.027 16.8312 144.027 16.8919V17.9743C144.027 18.8478 143.822 19.6453 143.412 20.3669C142.994 21.0808 142.443 21.6543 141.76 22.0872C141.076 22.5126 140.305 22.7253 139.447 22.7253Z" fill="white"/>
<path d="M152.143 22.7253C151.315 22.7253 150.551 22.5126 149.853 22.0872C149.161 21.6619 148.603 21.096 148.178 20.3897C147.76 19.6757 147.551 18.8933 147.551 18.0426L147.574 10.6484C147.574 9.78255 147.783 9.00401 148.201 8.31283C148.611 7.61404 149.165 7.05577 149.864 6.63802C150.563 6.21267 151.322 6 152.143 6C152.993 6 153.757 6.20888 154.433 6.62663C155.116 7.04438 155.663 7.60645 156.073 8.31283C156.491 9.01161 156.7 9.79015 156.7 10.6484L156.723 18.0426C156.723 18.8933 156.518 19.6719 156.107 20.3783C155.69 21.0922 155.135 21.6619 154.444 22.0872C153.753 22.5126 152.986 22.7253 152.143 22.7253ZM152.143 19.9111C152.614 19.9111 153.024 19.7212 153.373 19.3415C153.722 18.9541 153.897 18.5212 153.897 18.0426L153.874 10.6484C153.874 10.1319 153.711 9.6952 153.384 9.33822C153.058 8.98123 152.644 8.80273 152.143 8.80273C151.664 8.80273 151.254 8.97743 150.912 9.32682C150.57 9.67622 150.399 10.1168 150.399 10.6484V18.0426C150.399 18.5515 150.57 18.9921 150.912 19.3643C151.254 19.7288 151.664 19.9111 152.143 19.9111Z" fill="white"/>
<path d="M168.222 22.4974H160.68C160.619 22.4974 160.589 22.4594 160.589 22.3835L160.611 6.37598C160.611 6.30002 160.649 6.26204 160.725 6.26204H163.323C163.399 6.26204 163.437 6.30002 163.437 6.37598L163.414 19.6263H168.222C168.298 19.6263 168.336 19.6643 168.336 19.7402V22.3835C168.336 22.4594 168.298 22.4974 168.222 22.4974Z" fill="white"/>
<path d="M179.596 22.4974H172.054C171.993 22.4974 171.963 22.4594 171.963 22.3835L171.985 6.37598C171.985 6.30002 172.023 6.26204 172.099 6.26204H174.697C174.773 6.26204 174.811 6.30002 174.811 6.37598L174.788 19.6263H179.596C179.672 19.6263 179.71 19.6643 179.71 19.7402V22.3835C179.71 22.4594 179.672 22.4974 179.596 22.4974Z" fill="white"/>
<path d="M190.97 22.4974H183.428C183.367 22.4974 183.337 22.4594 183.337 22.3835L183.36 6.35319C183.36 6.29243 183.39 6.26204 183.451 6.26204H190.947C191.008 6.26204 191.039 6.30002 191.039 6.37598V8.98503C191.039 9.04579 191.008 9.07617 190.947 9.07617H186.162V12.722H190.947C191.008 12.722 191.039 12.7524 191.039 12.8132L191.061 15.4564C191.061 15.5171 191.031 15.5475 190.97 15.5475H186.162V19.6263H190.97C191.031 19.6263 191.061 19.6643 191.061 19.7402V22.4063C191.061 22.467 191.031 22.4974 190.97 22.4974Z" fill="white"/>
<path d="M199.53 22.7253C198.687 22.7253 197.916 22.5126 197.217 22.0872C196.526 21.6619 195.976 21.0922 195.565 20.3783C195.163 19.6567 194.962 18.8554 194.962 17.9743L194.984 10.694C194.984 9.82813 195.182 9.04579 195.577 8.34701C195.972 7.64063 196.515 7.07476 197.206 6.64941C197.905 6.21647 198.68 6 199.53 6C200.396 6 201.167 6.20888 201.843 6.62663C202.527 7.04438 203.07 7.61024 203.472 8.32422C203.882 9.0306 204.088 9.82053 204.088 10.694V11.765C204.088 11.8257 204.057 11.8561 203.996 11.8561H201.376C201.315 11.8561 201.285 11.8257 201.285 11.765V10.694C201.285 10.1775 201.118 9.73318 200.783 9.361C200.449 8.98882 200.032 8.80273 199.53 8.80273C198.976 8.80273 198.55 8.99262 198.254 9.3724C197.958 9.75217 197.81 10.1927 197.81 10.694V17.9743C197.81 18.5439 197.977 19.0111 198.311 19.3757C198.645 19.7326 199.052 19.9111 199.53 19.9111C200.032 19.9111 200.449 19.7137 200.783 19.3187C201.118 18.9161 201.285 18.468 201.285 17.9743V16.8919C201.285 16.8312 201.315 16.8008 201.376 16.8008H204.019C204.08 16.8008 204.11 16.8312 204.11 16.8919V17.9743C204.11 18.8478 203.905 19.6453 203.495 20.3669C203.077 21.0808 202.527 21.6543 201.843 22.0872C201.159 22.5126 200.389 22.7253 199.53 22.7253Z" fill="white"/>
<path d="M212.887 22.4974H210.255C210.187 22.4974 210.152 22.4594 210.152 22.3835V9.07617H207.122C207.046 9.07617 207.008 9.03819 207.008 8.96224L207.031 6.35319C207.031 6.29243 207.061 6.26204 207.122 6.26204H215.986C216.069 6.26204 216.111 6.29243 216.111 6.35319V8.96224C216.111 9.03819 216.081 9.07617 216.02 9.07617H212.955L212.978 22.3835C212.978 22.4594 212.947 22.4974 212.887 22.4974Z" fill="white"/>
<path d="M222.107 22.4974H219.464C219.388 22.4974 219.35 22.4594 219.35 22.3835L219.373 6.35319C219.373 6.29243 219.404 6.26204 219.464 6.26204H222.085C222.145 6.26204 222.176 6.29243 222.176 6.35319L222.199 22.3835C222.199 22.4594 222.168 22.4974 222.107 22.4974Z" fill="white"/>
<path d="M231.795 22.4974H228.97C228.902 22.4974 228.864 22.4594 228.856 22.3835L225.632 6.35319C225.616 6.29243 225.647 6.26204 225.723 6.26204H228.366C228.427 6.26204 228.465 6.29243 228.48 6.35319L230.394 17.04L232.263 6.35319C232.278 6.29243 232.316 6.26204 232.376 6.26204H234.985C235.069 6.26204 235.099 6.29243 235.077 6.35319L231.909 22.3835C231.902 22.4594 231.864 22.4974 231.795 22.4974Z" fill="white"/>
<path d="M246.177 22.4974H238.635C238.574 22.4974 238.544 22.4594 238.544 22.3835L238.567 6.35319C238.567 6.29243 238.597 6.26204 238.658 6.26204H246.155C246.215 6.26204 246.246 6.30002 246.246 6.37598V8.98503C246.246 9.04579 246.215 9.07617 246.155 9.07617H241.369V12.722H246.155C246.215 12.722 246.246 12.7524 246.246 12.8132L246.268 15.4564C246.268 15.5171 246.238 15.5475 246.177 15.5475H241.369V19.6263H246.177C246.238 19.6263 246.268 19.6643 246.268 19.7402V22.4063C246.268 22.467 246.238 22.4974 246.177 22.4974Z" fill="white"/>
</g>
<defs>
<clipPath id="clip0_228_1116">
<rect width="30" height="30" fill="white"/>
</clipPath>
</defs>
</svg>
