<svg width="478" height="274" viewBox="0 0 478 274" fill="none" xmlns="http://www.w3.org/2000/svg">
<path d="M429.5 342C406.025 262.721 411.926 599.085 377.568 687.985C343.21 776.886 338.971 522.338 312.162 538.979C290.959 552.139 293.742 843.603 262.84 688.189C231.938 532.775 227.048 698.252 205.42 656.562C189.488 625.852 202.635 456.679 166.807 539.236C130.979 621.793 141.509 468.048 124.892 479.027C111.4 487.941 102.598 517.14 92.4618 558.405C82.326 599.67 65.8965 596.062 53.051 539.438C35.6727 462.833 -44.5189 297.903 40.2958 199.968C125.111 102.034 0.0115879 -9.46646 0.0115879 -9.46646L510.511 -16.9665L510.512 88C510.512 88 502.487 231.02 498.511 322.534C493.782 431.409 452.975 421.279 429.5 342Z" fill="url(#paint0_linear_440_907)"/>
<defs>
<linearGradient id="paint0_linear_440_907" x1="429.608" y1="531.156" x2="-39.1475" y2="192.372" gradientUnits="userSpaceOnUse">
<stop stop-color="#09DFFD"/>
<stop offset="0.0528202" stop-color="#35BBEE"/>
<stop offset="0.392299" stop-color="#7E5BAD"/>
<stop offset="0.715" stop-color="#150C5D"/>
</linearGradient>
</defs>
</svg>
