<svg width="18" height="17" viewBox="0 0 18 17" fill="none" xmlns="http://www.w3.org/2000/svg">
<g clip-path="url(#clip0_228_1116)">
<path fill-rule="evenodd" clip-rule="evenodd" d="M2.40998 4.92118C1.07898 4.92118 0 3.89358 0 2.62597C0 1.35835 1.07898 0.330751 2.40998 0.330751C3.74097 0.330751 4.81995 1.35835 4.81995 2.62597C4.81995 3.89358 3.74097 4.92118 2.40998 4.92118Z" fill="#09DFFD"/>
<path fill-rule="evenodd" clip-rule="evenodd" d="M2.41012 10.6857C1.07913 10.6857 0.000143051 9.65816 0.000143051 8.39058C0.000143051 7.12301 1.07913 6.09544 2.41012 6.09544C3.74111 6.09544 4.82009 7.12301 4.82009 8.39058C4.82009 9.65816 3.74111 10.6857 2.41012 10.6857Z" fill="#09DFFD"/>
<path fill-rule="evenodd" clip-rule="evenodd" d="M2.41012 16.6641C1.07913 16.6641 0.000143051 15.6365 0.000143051 14.3689C0.000143051 13.1013 1.07913 12.0737 2.41012 12.0737C3.74111 12.0737 4.82009 13.1013 4.82009 14.3689C4.82009 15.6365 3.74111 16.6641 2.41012 16.6641Z" fill="#09DFFD"/>
<path fill-rule="evenodd" clip-rule="evenodd" d="M8.68715 10.6857C7.3562 10.6857 6.27725 9.65816 6.27725 8.39058C6.27725 7.12301 7.3562 6.09544 8.68715 6.09544C10.0181 6.09544 11.0971 7.12301 11.0971 8.39058C11.0971 9.65816 10.0181 10.6857 8.68715 10.6857Z" fill="#09DFFD"/>
<path fill-rule="evenodd" clip-rule="evenodd" d="M8.68715 16.6641C7.3562 16.6641 6.27725 15.6365 6.27725 14.3689C6.27725 13.1013 7.3562 12.0737 8.68715 12.0737C10.0181 12.0737 11.0971 13.1013 11.0971 14.3689C11.0971 15.6365 10.0181 16.6641 8.68715 16.6641Z" fill="#09DFFD"/>
<path fill-rule="evenodd" clip-rule="evenodd" d="M14.7403 16.6641C13.4093 16.6641 12.3303 15.6365 12.3303 14.3689C12.3303 13.1013 13.4093 12.0737 14.7403 12.0737C16.0713 12.0737 17.1503 13.1013 17.1503 14.3689C17.1503 15.6365 16.0713 16.6641 14.7403 16.6641Z" fill="#09DFFD"/>
<path d="M31.7663 15.7253C30.9232 15.7253 30.1522 15.5126 29.4534 15.0872C28.7623 14.6619 28.2116 14.0922 27.8014 13.3783C27.3989 12.6567 27.1976 11.8554 27.1976 10.9743L27.2204 3.69401C27.2204 2.82813 27.4179 2.04579 27.8128 1.34701C28.2078 0.640625 28.7509 0.0747614 29.4421 -0.350586C30.1408 -0.783529 30.9156 -1 31.7663 -1C32.6322 -1 33.4031 -0.791124 34.0791 -0.373372C34.7627 0.0443795 35.3058 0.610243 35.7083 1.32422C36.1185 2.0306 36.3236 2.82053 36.3236 3.69401V4.76497C36.3236 4.82574 36.2932 4.85612 36.2324 4.85612H33.612C33.5512 4.85612 33.5208 4.82574 33.5208 4.76497V3.69401C33.5208 3.17752 33.3537 2.73318 33.0195 2.361C32.6853 1.98882 32.2676 1.80273 31.7663 1.80273C31.2118 1.80273 30.7865 1.99262 30.4902 2.3724C30.194 2.75217 30.0459 3.19271 30.0459 3.69401V10.9743C30.0459 11.5439 30.213 12.0111 30.5472 12.3757C30.8814 12.7326 31.2878 12.9111 31.7663 12.9111C32.2676 12.9111 32.6853 12.7137 33.0195 12.3187C33.3537 11.9161 33.5208 11.468 33.5208 10.9743V9.89193C33.5208 9.83116 33.5512 9.80078 33.612 9.80078H36.2552C36.316 9.80078 36.3464 9.83116 36.3464 9.89193V10.9743C36.3464 11.8478 36.1413 12.6453 35.7311 13.3669C35.3134 14.0808 34.7627 14.6543 34.0791 15.0872C33.3955 15.5126 32.6246 15.7253 31.7663 15.7253Z" fill="white"/>
<path d="M42.8783 15.4974H40.2351C40.1743 15.4974 40.1439 15.4594 40.1439 15.3835L40.1895 -0.64681C40.1895 -0.707574 40.2199 -0.737956 40.2807 -0.737956H44.9975C45.8406 -0.737956 46.6153 -0.532878 47.3217 -0.122721C48.0281 0.287435 48.5901 0.838108 49.0079 1.5293C49.4332 2.22049 49.6459 3.00282 49.6459 3.8763C49.6459 4.44596 49.5586 4.96246 49.3839 5.42578C49.2092 5.88911 49.0041 6.28027 48.7686 6.59928C48.5408 6.9183 48.3319 7.15376 48.142 7.30567C48.9851 8.23991 49.4066 9.33746 49.4066 10.5983L49.4294 15.3835C49.4294 15.4594 49.3914 15.4974 49.3155 15.4974H46.6723C46.6115 15.4974 46.5811 15.4746 46.5811 15.429V10.5983C46.5811 10.0362 46.3836 9.55013 45.9887 9.13997C45.5937 8.72982 45.1076 8.52474 44.5303 8.52474H42.9923L42.9695 15.3835C42.9695 15.4594 42.9391 15.4974 42.8783 15.4974ZM44.9975 2.05339H42.9923V5.72201H44.9975C45.476 5.72201 45.9013 5.54351 46.2735 5.18652C46.6533 4.82954 46.8432 4.3928 46.8432 3.8763C46.8432 3.3826 46.6609 2.95725 46.2963 2.60026C45.9317 2.23568 45.4988 2.05339 44.9975 2.05339Z" fill="white"/>
<path d="M61.1339 15.4974H53.5916C53.5308 15.4974 53.5005 15.4594 53.5005 15.3835L53.5232 -0.64681C53.5232 -0.707574 53.5536 -0.737956 53.6144 -0.737956H61.1111C61.1719 -0.737956 61.2023 -0.699978 61.2023 -0.624023V1.98503C61.2023 2.04579 61.1719 2.07617 61.1111 2.07617H56.326V5.72201H61.1111C61.1719 5.72201 61.2023 5.75239 61.2023 5.81315L61.2251 8.45638C61.2251 8.51714 61.1947 8.54753 61.1339 8.54753H56.326V12.6263H61.1339C61.1947 12.6263 61.2251 12.6643 61.2251 12.7402V15.4063C61.2251 15.467 61.1947 15.4974 61.1339 15.4974Z" fill="white"/>
<path d="M64.6125 15.3835L67.5064 -0.64681C67.5216 -0.707574 67.5596 -0.737956 67.6203 -0.737956H71.0041C71.0649 -0.737956 71.1028 -0.707574 71.118 -0.64681L73.898 15.3835C73.9056 15.4594 73.8752 15.4974 73.8068 15.4974H71.2206C71.1446 15.4974 71.1028 15.4594 71.0953 15.3835L70.8446 13.6745H67.6659L67.4152 15.3835C67.4076 15.4594 67.3697 15.4974 67.3013 15.4974H64.7037C64.6429 15.4974 64.6125 15.4594 64.6125 15.3835ZM69.1812 4.62826L68.133 11.1794H70.3775L69.4204 4.62826L69.2837 3.76237L69.1812 4.62826Z" fill="white"/>
<path d="M82.4352 15.4974H79.8033C79.735 15.4974 79.7008 15.4594 79.7008 15.3835V2.07617H76.6702C76.5942 2.07617 76.5563 2.03819 76.5563 1.96224L76.579 -0.64681C76.579 -0.707574 76.6094 -0.737956 76.6702 -0.737956H85.5341C85.6177 -0.737956 85.6594 -0.707574 85.6594 -0.64681V1.96224C85.6594 2.03819 85.6291 2.07617 85.5683 2.07617H82.5035L82.5263 15.3835C82.5263 15.4594 82.4959 15.4974 82.4352 15.4974Z" fill="white"/>
<path d="M91.6559 15.4974H89.0127C88.9367 15.4974 88.8988 15.4594 88.8988 15.3835L88.9216 -0.64681C88.9216 -0.707574 88.9519 -0.737956 89.0127 -0.737956H91.6331C91.6939 -0.737956 91.7243 -0.707574 91.7243 -0.64681L91.7471 15.3835C91.7471 15.4594 91.7167 15.4974 91.6559 15.4974Z" fill="white"/>
<path d="M101.344 15.4974H98.5183C98.4499 15.4974 98.412 15.4594 98.4044 15.3835L95.1801 -0.64681C95.1649 -0.707574 95.1953 -0.737956 95.2712 -0.737956H97.9145C97.9752 -0.737956 98.0132 -0.707574 98.0284 -0.64681L99.9425 10.04L101.811 -0.64681C101.826 -0.707574 101.864 -0.737956 101.925 -0.737956H104.534C104.617 -0.737956 104.648 -0.707574 104.625 -0.64681L101.458 15.3835C101.45 15.4594 101.412 15.4974 101.344 15.4974Z" fill="white"/>
<path d="M115.726 15.4974H108.183C108.123 15.4974 108.092 15.4594 108.092 15.3835L108.115 -0.64681C108.115 -0.707574 108.145 -0.737956 108.206 -0.737956H115.703C115.764 -0.737956 115.794 -0.699978 115.794 -0.624023V1.98503C115.794 2.04579 115.764 2.07617 115.703 2.07617H110.918V5.72201H115.703C115.764 5.72201 115.794 5.75239 115.794 5.81315L115.817 8.45638C115.817 8.51714 115.786 8.54753 115.726 8.54753H110.918V12.6263H115.726C115.786 12.6263 115.817 12.6643 115.817 12.7402V15.4063C115.817 15.467 115.786 15.4974 115.726 15.4974Z" fill="white"/>
<path d="M132.447 15.7253C131.604 15.7253 130.833 15.5126 130.134 15.0872C129.443 14.6619 128.892 14.0922 128.482 13.3783C128.079 12.6567 127.878 11.8554 127.878 10.9743L127.901 3.69401C127.901 2.82813 128.098 2.04579 128.493 1.34701C128.888 0.640625 129.431 0.0747614 130.123 -0.350586C130.821 -0.783529 131.596 -1 132.447 -1C133.313 -1 134.084 -0.791124 134.76 -0.373372C135.443 0.0443795 135.986 0.610243 136.389 1.32422C136.799 2.0306 137.004 2.82053 137.004 3.69401V4.76497C137.004 4.82574 136.974 4.85612 136.913 4.85612H134.293C134.232 4.85612 134.201 4.82574 134.201 4.76497V3.69401C134.201 3.17752 134.034 2.73318 133.7 2.361C133.366 1.98882 132.948 1.80273 132.447 1.80273C131.892 1.80273 131.467 1.99262 131.171 2.3724C130.875 2.75217 130.727 3.19271 130.727 3.69401V10.9743C130.727 11.5439 130.894 12.0111 131.228 12.3757C131.562 12.7326 131.968 12.9111 132.447 12.9111C132.948 12.9111 133.366 12.7137 133.7 12.3187C134.034 11.9161 134.201 11.468 134.201 10.9743V9.89193C134.201 9.83116 134.232 9.80078 134.293 9.80078H136.936C136.997 9.80078 137.027 9.83116 137.027 9.89193V10.9743C137.027 11.8478 136.822 12.6453 136.412 13.3669C135.994 14.0808 135.443 14.6543 134.76 15.0872C134.076 15.5126 133.305 15.7253 132.447 15.7253Z" fill="white"/>
<path d="M145.143 15.7253C144.315 15.7253 143.551 15.5126 142.853 15.0872C142.161 14.6619 141.603 14.096 141.178 13.3897C140.76 12.6757 140.551 11.8933 140.551 11.0426L140.574 3.64844C140.574 2.78255 140.783 2.00401 141.201 1.31283C141.611 0.614041 142.165 0.0557727 142.864 -0.361979C143.563 -0.787326 144.322 -1 145.143 -1C145.993 -1 146.757 -0.791124 147.433 -0.373372C148.116 0.0443795 148.663 0.606445 149.073 1.31283C149.491 2.01161 149.7 2.79015 149.7 3.64844L149.723 11.0426C149.723 11.8933 149.518 12.6719 149.107 13.3783C148.69 14.0922 148.135 14.6619 147.444 15.0872C146.753 15.5126 145.986 15.7253 145.143 15.7253ZM145.143 12.9111C145.614 12.9111 146.024 12.7212 146.373 12.3415C146.722 11.9541 146.897 11.5212 146.897 11.0426L146.874 3.64844C146.874 3.13194 146.711 2.6952 146.384 2.33822C146.058 1.98123 145.644 1.80273 145.143 1.80273C144.664 1.80273 144.254 1.97743 143.912 2.32682C143.57 2.67622 143.399 3.11675 143.399 3.64844V11.0426C143.399 11.5515 143.57 11.9921 143.912 12.3643C144.254 12.7288 144.664 12.9111 145.143 12.9111Z" fill="white"/>
<path d="M161.222 15.4974H153.68C153.619 15.4974 153.589 15.4594 153.589 15.3835L153.611 -0.624023C153.611 -0.699978 153.649 -0.737956 153.725 -0.737956H156.323C156.399 -0.737956 156.437 -0.699978 156.437 -0.624023L156.414 12.6263H161.222C161.298 12.6263 161.336 12.6643 161.336 12.7402V15.3835C161.336 15.4594 161.298 15.4974 161.222 15.4974Z" fill="white"/>
<path d="M172.596 15.4974H165.054C164.993 15.4974 164.963 15.4594 164.963 15.3835L164.985 -0.624023C164.985 -0.699978 165.023 -0.737956 165.099 -0.737956H167.697C167.773 -0.737956 167.811 -0.699978 167.811 -0.624023L167.788 12.6263H172.596C172.672 12.6263 172.71 12.6643 172.71 12.7402V15.3835C172.71 15.4594 172.672 15.4974 172.596 15.4974Z" fill="white"/>
<path d="M183.97 15.4974H176.428C176.367 15.4974 176.337 15.4594 176.337 15.3835L176.36 -0.64681C176.36 -0.707574 176.39 -0.737956 176.451 -0.737956H183.947C184.008 -0.737956 184.039 -0.699978 184.039 -0.624023V1.98503C184.039 2.04579 184.008 2.07617 183.947 2.07617H179.162V5.72201H183.947C184.008 5.72201 184.039 5.75239 184.039 5.81315L184.061 8.45638C184.061 8.51714 184.031 8.54753 183.97 8.54753H179.162V12.6263H183.97C184.031 12.6263 184.061 12.6643 184.061 12.7402V15.4063C184.061 15.467 184.031 15.4974 183.97 15.4974Z" fill="white"/>
<path d="M192.53 15.7253C191.687 15.7253 190.916 15.5126 190.217 15.0872C189.526 14.6619 188.976 14.0922 188.565 13.3783C188.163 12.6567 187.962 11.8554 187.962 10.9743L187.984 3.69401C187.984 2.82813 188.182 2.04579 188.577 1.34701C188.972 0.640625 189.515 0.0747614 190.206 -0.350586C190.905 -0.783529 191.68 -1 192.53 -1C193.396 -1 194.167 -0.791124 194.843 -0.373372C195.527 0.0443795 196.07 0.610243 196.472 1.32422C196.882 2.0306 197.088 2.82053 197.088 3.69401V4.76497C197.088 4.82574 197.057 4.85612 196.996 4.85612H194.376C194.315 4.85612 194.285 4.82574 194.285 4.76497V3.69401C194.285 3.17752 194.118 2.73318 193.783 2.361C193.449 1.98882 193.032 1.80273 192.53 1.80273C191.976 1.80273 191.55 1.99262 191.254 2.3724C190.958 2.75217 190.81 3.19271 190.81 3.69401V10.9743C190.81 11.5439 190.977 12.0111 191.311 12.3757C191.645 12.7326 192.052 12.9111 192.53 12.9111C193.032 12.9111 193.449 12.7137 193.783 12.3187C194.118 11.9161 194.285 11.468 194.285 10.9743V9.89193C194.285 9.83116 194.315 9.80078 194.376 9.80078H197.019C197.08 9.80078 197.11 9.83116 197.11 9.89193V10.9743C197.11 11.8478 196.905 12.6453 196.495 13.3669C196.077 14.0808 195.527 14.6543 194.843 15.0872C194.159 15.5126 193.389 15.7253 192.53 15.7253Z" fill="white"/>
<path d="M205.887 15.4974H203.255C203.187 15.4974 203.152 15.4594 203.152 15.3835V2.07617H200.122C200.046 2.07617 200.008 2.03819 200.008 1.96224L200.031 -0.64681C200.031 -0.707574 200.061 -0.737956 200.122 -0.737956H208.986C209.069 -0.737956 209.111 -0.707574 209.111 -0.64681V1.96224C209.111 2.03819 209.081 2.07617 209.02 2.07617H205.955L205.978 15.3835C205.978 15.4594 205.947 15.4974 205.887 15.4974Z" fill="white"/>
<path d="M215.107 15.4974H212.464C212.388 15.4974 212.35 15.4594 212.35 15.3835L212.373 -0.64681C212.373 -0.707574 212.404 -0.737956 212.464 -0.737956H215.085C215.145 -0.737956 215.176 -0.707574 215.176 -0.64681L215.199 15.3835C215.199 15.4594 215.168 15.4974 215.107 15.4974Z" fill="white"/>
<path d="M224.795 15.4974H221.97C221.902 15.4974 221.864 15.4594 221.856 15.3835L218.632 -0.64681C218.616 -0.707574 218.647 -0.737956 218.723 -0.737956H221.366C221.427 -0.737956 221.465 -0.707574 221.48 -0.64681L223.394 10.04L225.263 -0.64681C225.278 -0.707574 225.316 -0.737956 225.376 -0.737956H227.985C228.069 -0.737956 228.099 -0.707574 228.077 -0.64681L224.909 15.3835C224.902 15.4594 224.864 15.4974 224.795 15.4974Z" fill="white"/>
<path d="M239.177 15.4974H231.635C231.574 15.4974 231.544 15.4594 231.544 15.3835L231.567 -0.64681C231.567 -0.707574 231.597 -0.737956 231.658 -0.737956H239.155C239.215 -0.737956 239.246 -0.699978 239.246 -0.624023V1.98503C239.246 2.04579 239.215 2.07617 239.155 2.07617H234.369V5.72201H239.155C239.215 5.72201 239.246 5.75239 239.246 5.81315L239.268 8.45638C239.268 8.51714 239.238 8.54753 239.177 8.54753H234.369V12.6263H239.177C239.238 12.6263 239.268 12.6643 239.268 12.7402V15.4063C239.268 15.467 239.238 15.4974 239.177 15.4974Z" fill="white"/>
</g>
<defs>
<clipPath id="clip0_228_1116">
<rect width="18" height="17" fill="white"/>
</clipPath>
</defs>
</svg>
