<svg width="283" height="83" viewBox="0 0 283 83" fill="none" xmlns="http://www.w3.org/2000/svg">
<path fill-rule="evenodd" clip-rule="evenodd" d="M23.41 38.9212C22.079 38.9212 21 37.8936 21 36.626C21 35.3584 22.079 34.3308 23.41 34.3308C24.741 34.3308 25.82 35.3584 25.82 36.626C25.82 37.8936 24.741 38.9212 23.41 38.9212Z" fill="#09DFFD"/>
<path fill-rule="evenodd" clip-rule="evenodd" d="M23.4101 44.6857C22.0791 44.6857 21.0001 43.6582 21.0001 42.3906C21.0001 41.123 22.0791 40.0954 23.4101 40.0954C24.7411 40.0954 25.8201 41.123 25.8201 42.3906C25.8201 43.6582 24.7411 44.6857 23.4101 44.6857Z" fill="#09DFFD"/>
<path fill-rule="evenodd" clip-rule="evenodd" d="M23.4101 50.6641C22.0791 50.6641 21.0001 49.6365 21.0001 48.3689C21.0001 47.1013 22.0791 46.0737 23.4101 46.0737C24.7411 46.0737 25.8201 47.1013 25.8201 48.3689C25.8201 49.6365 24.7411 50.6641 23.4101 50.6641Z" fill="#09DFFD"/>
<path fill-rule="evenodd" clip-rule="evenodd" d="M29.6871 44.6857C28.3562 44.6857 27.2772 43.6582 27.2772 42.3906C27.2772 41.123 28.3562 40.0954 29.6871 40.0954C31.0181 40.0954 32.0971 41.123 32.0971 42.3906C32.0971 43.6582 31.0181 44.6857 29.6871 44.6857Z" fill="#09DFFD"/>
<path fill-rule="evenodd" clip-rule="evenodd" d="M29.6871 50.6641C28.3562 50.6641 27.2772 49.6365 27.2772 48.3689C27.2772 47.1013 28.3562 46.0737 29.6871 46.0737C31.0181 46.0737 32.0971 47.1013 32.0971 48.3689C32.0971 49.6365 31.0181 50.6641 29.6871 50.6641Z" fill="#09DFFD"/>
<path fill-rule="evenodd" clip-rule="evenodd" d="M35.7403 50.6641C34.4093 50.6641 33.3303 49.6365 33.3303 48.3689C33.3303 47.1013 34.4093 46.0737 35.7403 46.0737C37.0713 46.0737 38.1503 47.1013 38.1503 48.3689C38.1503 49.6365 37.0713 50.6641 35.7403 50.6641Z" fill="#09DFFD"/>
<path d="M52.7663 49.7253C51.9232 49.7253 51.1522 49.5126 50.4534 49.0872C49.7623 48.6619 49.2116 48.0922 48.8014 47.3783C48.3989 46.6567 48.1976 45.8554 48.1976 44.9743L48.2204 37.694C48.2204 36.8281 48.4179 36.0458 48.8128 35.347C49.2078 34.6406 49.7509 34.0748 50.4421 33.6494C51.1408 33.2165 51.9156 33 52.7663 33C53.6322 33 54.4031 33.2089 55.0791 33.6266C55.7627 34.0444 56.3058 34.6102 56.7083 35.3242C57.1185 36.0306 57.3236 36.8205 57.3236 37.694V38.765C57.3236 38.8257 57.2932 38.8561 57.2324 38.8561H54.612C54.5512 38.8561 54.5208 38.8257 54.5208 38.765V37.694C54.5208 37.1775 54.3537 36.7332 54.0195 36.361C53.6853 35.9888 53.2676 35.8027 52.7663 35.8027C52.2118 35.8027 51.7865 35.9926 51.4902 36.3724C51.194 36.7522 51.0459 37.1927 51.0459 37.694V44.9743C51.0459 45.5439 51.213 46.0111 51.5472 46.3757C51.8814 46.7326 52.2878 46.9111 52.7663 46.9111C53.2676 46.9111 53.6853 46.7137 54.0195 46.3187C54.3537 45.9161 54.5208 45.468 54.5208 44.9743V43.8919C54.5208 43.8312 54.5512 43.8008 54.612 43.8008H57.2552C57.316 43.8008 57.3464 43.8312 57.3464 43.8919V44.9743C57.3464 45.8478 57.1413 46.6453 56.7311 47.3669C56.3134 48.0808 55.7627 48.6543 55.0791 49.0872C54.3955 49.5126 53.6246 49.7253 52.7663 49.7253Z" fill="white"/>
<path d="M63.8783 49.4974H61.2351C61.1743 49.4974 61.1439 49.4594 61.1439 49.3835L61.1895 33.3532C61.1895 33.2924 61.2199 33.262 61.2807 33.262H65.9975C66.8406 33.262 67.6153 33.4671 68.3217 33.8773C69.0281 34.2874 69.5901 34.8381 70.0079 35.5293C70.4332 36.2205 70.6459 37.0028 70.6459 37.8763C70.6459 38.446 70.5586 38.9625 70.3839 39.4258C70.2092 39.8891 70.0041 40.2803 69.7686 40.5993C69.5408 40.9183 69.3319 41.1538 69.142 41.3057C69.9851 42.2399 70.4066 43.3375 70.4066 44.5983L70.4294 49.3835C70.4294 49.4594 70.3914 49.4974 70.3155 49.4974H67.6723C67.6115 49.4974 67.5811 49.4746 67.5811 49.429V44.5983C67.5811 44.0362 67.3836 43.5501 66.9887 43.14C66.5937 42.7298 66.1076 42.5247 65.5303 42.5247H63.9923L63.9695 49.3835C63.9695 49.4594 63.9391 49.4974 63.8783 49.4974ZM65.9975 36.0534H63.9923V39.722H65.9975C66.476 39.722 66.9013 39.5435 67.2735 39.1865C67.6533 38.8295 67.8432 38.3928 67.8432 37.8763C67.8432 37.3826 67.6609 36.9572 67.2963 36.6003C66.9317 36.2357 66.4988 36.0534 65.9975 36.0534Z" fill="white"/>
<path d="M82.1339 49.4974H74.5916C74.5308 49.4974 74.5005 49.4594 74.5005 49.3835L74.5232 33.3532C74.5232 33.2924 74.5536 33.262 74.6144 33.262H82.1111C82.1719 33.262 82.2023 33.3 82.2023 33.376V35.985C82.2023 36.0458 82.1719 36.0762 82.1111 36.0762H77.326V39.722H82.1111C82.1719 39.722 82.2023 39.7524 82.2023 39.8132L82.2251 42.4564C82.2251 42.5171 82.1947 42.5475 82.1339 42.5475H77.326V46.6263H82.1339C82.1947 46.6263 82.2251 46.6643 82.2251 46.7402V49.4063C82.2251 49.467 82.1947 49.4974 82.1339 49.4974Z" fill="white"/>
<path d="M85.6125 49.3835L88.5064 33.3532C88.5216 33.2924 88.5596 33.262 88.6203 33.262H92.0041C92.0649 33.262 92.1028 33.2924 92.118 33.3532L94.898 49.3835C94.9056 49.4594 94.8752 49.4974 94.8068 49.4974H92.2206C92.1446 49.4974 92.1028 49.4594 92.0953 49.3835L91.8446 47.6745H88.6659L88.4152 49.3835C88.4076 49.4594 88.3697 49.4974 88.3013 49.4974H85.7037C85.6429 49.4974 85.6125 49.4594 85.6125 49.3835ZM90.1812 38.6283L89.133 45.1794H91.3775L90.4204 38.6283L90.2837 37.7624L90.1812 38.6283Z" fill="white"/>
<path d="M103.435 49.4974H100.803C100.735 49.4974 100.701 49.4594 100.701 49.3835V36.0762H97.6702C97.5942 36.0762 97.5563 36.0382 97.5563 35.9622L97.579 33.3532C97.579 33.2924 97.6094 33.262 97.6702 33.262H106.534C106.618 33.262 106.659 33.2924 106.659 33.3532V35.9622C106.659 36.0382 106.629 36.0762 106.568 36.0762H103.504L103.526 49.3835C103.526 49.4594 103.496 49.4974 103.435 49.4974Z" fill="white"/>
<path d="M112.656 49.4974H110.013C109.937 49.4974 109.899 49.4594 109.899 49.3835L109.922 33.3532C109.922 33.2924 109.952 33.262 110.013 33.262H112.633C112.694 33.262 112.724 33.2924 112.724 33.3532L112.747 49.3835C112.747 49.4594 112.717 49.4974 112.656 49.4974Z" fill="white"/>
<path d="M122.344 49.4974H119.518C119.45 49.4974 119.412 49.4594 119.404 49.3835L116.18 33.3532C116.165 33.2924 116.195 33.262 116.271 33.262H118.914C118.975 33.262 119.013 33.2924 119.028 33.3532L120.942 44.04L122.811 33.3532C122.826 33.2924 122.864 33.262 122.925 33.262H125.534C125.617 33.262 125.648 33.2924 125.625 33.3532L122.458 49.3835C122.45 49.4594 122.412 49.4974 122.344 49.4974Z" fill="white"/>
<path d="M136.726 49.4974H129.183C129.123 49.4974 129.092 49.4594 129.092 49.3835L129.115 33.3532C129.115 33.2924 129.145 33.262 129.206 33.262H136.703C136.764 33.262 136.794 33.3 136.794 33.376V35.985C136.794 36.0458 136.764 36.0762 136.703 36.0762H131.918V39.722H136.703C136.764 39.722 136.794 39.7524 136.794 39.8132L136.817 42.4564C136.817 42.5171 136.786 42.5475 136.726 42.5475H131.918V46.6263H136.726C136.786 46.6263 136.817 46.6643 136.817 46.7402V49.4063C136.817 49.467 136.786 49.4974 136.726 49.4974Z" fill="white"/>
<path d="M153.447 49.7253C152.604 49.7253 151.833 49.5126 151.134 49.0872C150.443 48.6619 149.892 48.0922 149.482 47.3783C149.079 46.6567 148.878 45.8554 148.878 44.9743L148.901 37.694C148.901 36.8281 149.098 36.0458 149.493 35.347C149.888 34.6406 150.431 34.0748 151.123 33.6494C151.821 33.2165 152.596 33 153.447 33C154.313 33 155.084 33.2089 155.76 33.6266C156.443 34.0444 156.986 34.6102 157.389 35.3242C157.799 36.0306 158.004 36.8205 158.004 37.694V38.765C158.004 38.8257 157.974 38.8561 157.913 38.8561H155.293C155.232 38.8561 155.201 38.8257 155.201 38.765V37.694C155.201 37.1775 155.034 36.7332 154.7 36.361C154.366 35.9888 153.948 35.8027 153.447 35.8027C152.892 35.8027 152.467 35.9926 152.171 36.3724C151.875 36.7522 151.727 37.1927 151.727 37.694V44.9743C151.727 45.5439 151.894 46.0111 152.228 46.3757C152.562 46.7326 152.968 46.9111 153.447 46.9111C153.948 46.9111 154.366 46.7137 154.7 46.3187C155.034 45.9161 155.201 45.468 155.201 44.9743V43.8919C155.201 43.8312 155.232 43.8008 155.293 43.8008H157.936C157.997 43.8008 158.027 43.8312 158.027 43.8919V44.9743C158.027 45.8478 157.822 46.6453 157.412 47.3669C156.994 48.0808 156.443 48.6543 155.76 49.0872C155.076 49.5126 154.305 49.7253 153.447 49.7253Z" fill="white"/>
<path d="M166.143 49.7253C165.315 49.7253 164.551 49.5126 163.853 49.0872C163.161 48.6619 162.603 48.096 162.178 47.3897C161.76 46.6757 161.551 45.8933 161.551 45.0426L161.574 37.6484C161.574 36.7826 161.783 36.004 162.201 35.3128C162.611 34.614 163.165 34.0558 163.864 33.638C164.563 33.2127 165.322 33 166.143 33C166.993 33 167.757 33.2089 168.433 33.6266C169.116 34.0444 169.663 34.6064 170.073 35.3128C170.491 36.0116 170.7 36.7901 170.7 37.6484L170.723 45.0426C170.723 45.8933 170.518 46.6719 170.107 47.3783C169.69 48.0922 169.135 48.6619 168.444 49.0872C167.753 49.5126 166.986 49.7253 166.143 49.7253ZM166.143 46.9111C166.614 46.9111 167.024 46.7212 167.373 46.3415C167.722 45.9541 167.897 45.5212 167.897 45.0426L167.874 37.6484C167.874 37.1319 167.711 36.6952 167.384 36.3382C167.058 35.9812 166.644 35.8027 166.143 35.8027C165.664 35.8027 165.254 35.9774 164.912 36.3268C164.57 36.6762 164.399 37.1168 164.399 37.6484V45.0426C164.399 45.5515 164.57 45.9921 164.912 46.3643C165.254 46.7288 165.664 46.9111 166.143 46.9111Z" fill="white"/>
<path d="M182.222 49.4974H174.68C174.619 49.4974 174.589 49.4594 174.589 49.3835L174.611 33.376C174.611 33.3 174.649 33.262 174.725 33.262H177.323C177.399 33.262 177.437 33.3 177.437 33.376L177.414 46.6263H182.222C182.298 46.6263 182.336 46.6643 182.336 46.7402V49.3835C182.336 49.4594 182.298 49.4974 182.222 49.4974Z" fill="white"/>
<path d="M193.596 49.4974H186.054C185.993 49.4974 185.963 49.4594 185.963 49.3835L185.985 33.376C185.985 33.3 186.023 33.262 186.099 33.262H188.697C188.773 33.262 188.811 33.3 188.811 33.376L188.788 46.6263H193.596C193.672 46.6263 193.71 46.6643 193.71 46.7402V49.3835C193.71 49.4594 193.672 49.4974 193.596 49.4974Z" fill="white"/>
<path d="M204.97 49.4974H197.428C197.367 49.4974 197.337 49.4594 197.337 49.3835L197.36 33.3532C197.36 33.2924 197.39 33.262 197.451 33.262H204.947C205.008 33.262 205.039 33.3 205.039 33.376V35.985C205.039 36.0458 205.008 36.0762 204.947 36.0762H200.162V39.722H204.947C205.008 39.722 205.039 39.7524 205.039 39.8132L205.061 42.4564C205.061 42.5171 205.031 42.5475 204.97 42.5475H200.162V46.6263H204.97C205.031 46.6263 205.061 46.6643 205.061 46.7402V49.4063C205.061 49.467 205.031 49.4974 204.97 49.4974Z" fill="white"/>
<path d="M213.53 49.7253C212.687 49.7253 211.916 49.5126 211.217 49.0872C210.526 48.6619 209.976 48.0922 209.565 47.3783C209.163 46.6567 208.962 45.8554 208.962 44.9743L208.984 37.694C208.984 36.8281 209.182 36.0458 209.577 35.347C209.972 34.6406 210.515 34.0748 211.206 33.6494C211.905 33.2165 212.68 33 213.53 33C214.396 33 215.167 33.2089 215.843 33.6266C216.527 34.0444 217.07 34.6102 217.472 35.3242C217.882 36.0306 218.088 36.8205 218.088 37.694V38.765C218.088 38.8257 218.057 38.8561 217.996 38.8561H215.376C215.315 38.8561 215.285 38.8257 215.285 38.765V37.694C215.285 37.1775 215.118 36.7332 214.783 36.361C214.449 35.9888 214.032 35.8027 213.53 35.8027C212.976 35.8027 212.55 35.9926 212.254 36.3724C211.958 36.7522 211.81 37.1927 211.81 37.694V44.9743C211.81 45.5439 211.977 46.0111 212.311 46.3757C212.645 46.7326 213.052 46.9111 213.53 46.9111C214.032 46.9111 214.449 46.7137 214.783 46.3187C215.118 45.9161 215.285 45.468 215.285 44.9743V43.8919C215.285 43.8312 215.315 43.8008 215.376 43.8008H218.019C218.08 43.8008 218.11 43.8312 218.11 43.8919V44.9743C218.11 45.8478 217.905 46.6453 217.495 47.3669C217.077 48.0808 216.527 48.6543 215.843 49.0872C215.159 49.5126 214.389 49.7253 213.53 49.7253Z" fill="white"/>
<path d="M226.887 49.4974H224.255C224.187 49.4974 224.152 49.4594 224.152 49.3835V36.0762H221.122C221.046 36.0762 221.008 36.0382 221.008 35.9622L221.031 33.3532C221.031 33.2924 221.061 33.262 221.122 33.262H229.986C230.069 33.262 230.111 33.2924 230.111 33.3532V35.9622C230.111 36.0382 230.081 36.0762 230.02 36.0762H226.955L226.978 49.3835C226.978 49.4594 226.947 49.4974 226.887 49.4974Z" fill="white"/>
<path d="M236.107 49.4974H233.464C233.388 49.4974 233.35 49.4594 233.35 49.3835L233.373 33.3532C233.373 33.2924 233.404 33.262 233.464 33.262H236.085C236.145 33.262 236.176 33.2924 236.176 33.3532L236.199 49.3835C236.199 49.4594 236.168 49.4974 236.107 49.4974Z" fill="white"/>
<path d="M245.795 49.4974H242.97C242.902 49.4974 242.864 49.4594 242.856 49.3835L239.632 33.3532C239.616 33.2924 239.647 33.262 239.723 33.262H242.366C242.427 33.262 242.465 33.2924 242.48 33.3532L244.394 44.04L246.263 33.3532C246.278 33.2924 246.316 33.262 246.376 33.262H248.985C249.069 33.262 249.099 33.2924 249.077 33.3532L245.909 49.3835C245.902 49.4594 245.864 49.4974 245.795 49.4974Z" fill="white"/>
<path d="M260.177 49.4974H252.635C252.574 49.4974 252.544 49.4594 252.544 49.3835L252.567 33.3532C252.567 33.2924 252.597 33.262 252.658 33.262H260.155C260.215 33.262 260.246 33.3 260.246 33.376V35.985C260.246 36.0458 260.215 36.0762 260.155 36.0762H255.369V39.722H260.155C260.215 39.722 260.246 39.7524 260.246 39.8132L260.268 42.4564C260.268 42.5171 260.238 42.5475 260.177 42.5475H255.369V46.6263H260.177C260.238 46.6263 260.268 46.6643 260.268 46.7402V49.4063C260.268 49.467 260.238 49.4974 260.177 49.4974Z" fill="white"/>
</svg>
