<svg width="241" height="42" viewBox="0 0 241 42" fill="none" xmlns="http://www.w3.org/2000/svg">
<path fill-rule="evenodd" clip-rule="evenodd" d="M2.40985 17.4238C1.07886 17.4238 -0.000125929 16.3962 -0.000125929 15.1286C-0.000125929 13.861 1.07886 12.8334 2.40985 12.8334C3.74084 12.8334 4.81982 13.861 4.81982 15.1286C4.81982 16.3962 3.74084 17.4238 2.40985 17.4238Z" fill="#09DFFD"/>
<path fill-rule="evenodd" clip-rule="evenodd" d="M2.41034 23.1883C1.07934 23.1883 0.000362353 22.1608 0.000362353 20.8932C0.000362353 19.6256 1.07934 18.5981 2.41034 18.5981C3.74133 18.5981 4.82031 19.6256 4.82031 20.8932C4.82031 22.1608 3.74133 23.1883 2.41034 23.1883Z" fill="#09DFFD"/>
<path fill-rule="evenodd" clip-rule="evenodd" d="M2.41034 29.1667C1.07934 29.1667 0.000362353 28.1391 0.000362353 26.8715C0.000362353 25.6039 1.07934 24.5763 2.41034 24.5763C3.74133 24.5763 4.82031 25.6039 4.82031 26.8715C4.82031 28.1391 3.74133 29.1667 2.41034 29.1667Z" fill="#09DFFD"/>
<path fill-rule="evenodd" clip-rule="evenodd" d="M8.68727 23.1883C7.35631 23.1883 6.27736 22.1608 6.27736 20.8932C6.27736 19.6256 7.35631 18.5981 8.68727 18.5981C10.0182 18.5981 11.0972 19.6256 11.0972 20.8932C11.0972 22.1608 10.0182 23.1883 8.68727 23.1883Z" fill="#09DFFD"/>
<path fill-rule="evenodd" clip-rule="evenodd" d="M8.68727 29.1667C7.35631 29.1667 6.27736 28.1391 6.27736 26.8715C6.27736 25.6039 7.35631 24.5763 8.68727 24.5763C10.0182 24.5763 11.0972 25.6039 11.0972 26.8715C11.0972 28.1391 10.0182 29.1667 8.68727 29.1667Z" fill="#09DFFD"/>
<path fill-rule="evenodd" clip-rule="evenodd" d="M14.7404 29.1667C13.4094 29.1667 12.3304 28.1391 12.3304 26.8715C12.3304 25.6039 13.4094 24.5763 14.7404 24.5763C16.0714 24.5763 17.1504 25.6039 17.1504 26.8715C17.1504 28.1391 16.0714 29.1667 14.7404 29.1667Z" fill="#09DFFD"/>
<path d="M31.766 28.2279C30.9229 28.2279 30.152 28.0152 29.4532 27.5898C28.762 27.1645 28.2113 26.5948 27.8012 25.8809C27.3986 25.1593 27.1973 24.358 27.1973 23.4769L27.2201 16.1966C27.2201 15.3307 27.4176 14.5484 27.8126 13.8496C28.2075 13.1432 28.7506 12.5774 29.4418 12.152C30.1406 11.7191 30.9153 11.5026 31.766 11.5026C32.6319 11.5026 33.4028 11.7115 34.0788 12.1292C34.7624 12.547 35.3055 13.1128 35.7081 13.8268C36.1182 14.5332 36.3233 15.3231 36.3233 16.1966V17.2676C36.3233 17.3283 36.2929 17.3587 36.2322 17.3587H33.6117C33.5509 17.3587 33.5206 17.3283 33.5206 17.2676V16.1966C33.5206 15.6801 33.3535 15.2358 33.0193 14.8636C32.6851 14.4914 32.2673 14.3053 31.766 14.3053C31.2115 14.3053 30.7862 14.4952 30.49 14.875C30.1937 15.2548 30.0456 15.6953 30.0456 16.1966V23.4769C30.0456 24.0465 30.2127 24.5137 30.5469 24.8783C30.8811 25.2352 31.2875 25.4137 31.766 25.4137C32.2673 25.4137 32.6851 25.2163 33.0193 24.8213C33.3535 24.4187 33.5206 23.9706 33.5206 23.4769V22.3945C33.5206 22.3338 33.5509 22.3034 33.6117 22.3034H36.2549C36.3157 22.3034 36.3461 22.3338 36.3461 22.3945V23.4769C36.3461 24.3504 36.141 25.1479 35.7308 25.8695C35.3131 26.5834 34.7624 27.1569 34.0788 27.5898C33.3952 28.0152 32.6243 28.2279 31.766 28.2279ZM42.8781 28H40.2348C40.1741 28 40.1437 27.962 40.1437 27.8861L40.1892 11.8558C40.1892 11.795 40.2196 11.7646 40.2804 11.7646H44.9972C45.8403 11.7646 46.615 11.9697 47.3214 12.3799C48.0278 12.79 48.5899 13.3407 49.0076 14.0319C49.433 14.7231 49.6456 15.5054 49.6456 16.3789C49.6456 16.9486 49.5583 17.4651 49.3836 17.9284C49.2089 18.3917 49.0038 18.7829 48.7684 19.1019C48.5405 19.4209 48.3316 19.6564 48.1417 19.8083C48.9848 20.7425 49.4064 21.8401 49.4064 23.1009L49.4292 27.8861C49.4292 27.962 49.3912 28 49.3152 28H46.672C46.6112 28 46.5809 27.9772 46.5809 27.9316V23.1009C46.5809 22.5388 46.3834 22.0527 45.9884 21.6426C45.5934 21.2324 45.1073 21.0273 44.5301 21.0273H42.992L42.9692 27.8861C42.9692 27.962 42.9388 28 42.8781 28ZM44.9972 14.556H42.992V18.2246H44.9972C45.4757 18.2246 45.9011 18.0461 46.2732 17.6891C46.653 17.3321 46.8429 16.8954 46.8429 16.3789C46.8429 15.8852 46.6606 15.4599 46.296 15.1029C45.9314 14.7383 45.4985 14.556 44.9972 14.556ZM61.1337 28H53.5913C53.5306 28 53.5002 27.962 53.5002 27.8861L53.523 11.8558C53.523 11.795 53.5534 11.7646 53.6141 11.7646H61.1109C61.1716 11.7646 61.202 11.8026 61.202 11.8786V14.4876C61.202 14.5484 61.1716 14.5788 61.1109 14.5788H56.3257V18.2246H61.1109C61.1716 18.2246 61.202 18.255 61.202 18.3158L61.2248 20.959C61.2248 21.0197 61.1944 21.0501 61.1337 21.0501H56.3257V25.1289H61.1337C61.1944 25.1289 61.2248 25.1669 61.2248 25.2428V27.9089C61.2248 27.9696 61.1944 28 61.1337 28ZM64.6122 27.8861L67.5061 11.8558C67.5213 11.795 67.5593 11.7646 67.62 11.7646H71.0038C71.0646 11.7646 71.1026 11.795 71.1178 11.8558L73.8977 27.8861C73.9053 27.962 73.8749 28 73.8066 28H71.2203C71.1444 28 71.1026 27.962 71.095 27.8861L70.8443 26.1771H67.6656L67.415 27.8861C67.4074 27.962 67.3694 28 67.301 28H64.7034C64.6426 28 64.6122 27.962 64.6122 27.8861ZM69.1809 17.1309L68.1327 23.682H70.3772L69.4202 17.1309L69.2835 16.265L69.1809 17.1309ZM82.4349 28H79.8031C79.7347 28 79.7005 27.962 79.7005 27.8861V14.5788H76.6699C76.594 14.5788 76.556 14.5408 76.556 14.4648L76.5788 11.8558C76.5788 11.795 76.6092 11.7646 76.6699 11.7646H85.5338C85.6174 11.7646 85.6592 11.795 85.6592 11.8558V14.4648C85.6592 14.5408 85.6288 14.5788 85.568 14.5788H82.5032L82.526 27.8861C82.526 27.962 82.4957 28 82.4349 28ZM91.6557 28H89.0124C88.9365 28 88.8985 27.962 88.8985 27.8861L88.9213 11.8558C88.9213 11.795 88.9517 11.7646 89.0124 11.7646H91.6329C91.6936 11.7646 91.724 11.795 91.724 11.8558L91.7468 27.8861C91.7468 27.962 91.7164 28 91.6557 28ZM101.344 28H98.518C98.4497 28 98.4117 27.962 98.4041 27.8861L95.1798 11.8558C95.1646 11.795 95.195 11.7646 95.271 11.7646H97.9142C97.9749 11.7646 98.0129 11.795 98.0281 11.8558L99.9422 22.5426L101.811 11.8558C101.826 11.795 101.864 11.7646 101.925 11.7646H104.534C104.617 11.7646 104.648 11.795 104.625 11.8558L101.457 27.8861C101.45 27.962 101.412 28 101.344 28ZM115.725 28H108.183C108.122 28 108.092 27.962 108.092 27.8861L108.115 11.8558C108.115 11.795 108.145 11.7646 108.206 11.7646H115.703C115.763 11.7646 115.794 11.8026 115.794 11.8786V14.4876C115.794 14.5484 115.763 14.5788 115.703 14.5788H110.918V18.2246H115.703C115.763 18.2246 115.794 18.255 115.794 18.3158L115.817 20.959C115.817 21.0197 115.786 21.0501 115.725 21.0501H110.918V25.1289H115.725C115.786 25.1289 115.817 25.1669 115.817 25.2428V27.9089C115.817 27.9696 115.786 28 115.725 28ZM132.447 28.2279C131.604 28.2279 130.833 28.0152 130.134 27.5898C129.443 27.1645 128.892 26.5948 128.482 25.8809C128.079 25.1593 127.878 24.358 127.878 23.4769L127.901 16.1966C127.901 15.3307 128.098 14.5484 128.493 13.8496C128.888 13.1432 129.431 12.5774 130.122 12.152C130.821 11.7191 131.596 11.5026 132.447 11.5026C133.313 11.5026 134.083 11.7115 134.759 12.1292C135.443 12.547 135.986 13.1128 136.389 13.8268C136.799 14.5332 137.004 15.3231 137.004 16.1966V17.2676C137.004 17.3283 136.974 17.3587 136.913 17.3587H134.292C134.232 17.3587 134.201 17.3283 134.201 17.2676V16.1966C134.201 15.6801 134.034 15.2358 133.7 14.8636C133.366 14.4914 132.948 14.3053 132.447 14.3053C131.892 14.3053 131.467 14.4952 131.171 14.875C130.874 15.2548 130.726 15.6953 130.726 16.1966V23.4769C130.726 24.0465 130.893 24.5137 131.228 24.8783C131.562 25.2352 131.968 25.4137 132.447 25.4137C132.948 25.4137 133.366 25.2163 133.7 24.8213C134.034 24.4187 134.201 23.9706 134.201 23.4769V22.3945C134.201 22.3338 134.232 22.3034 134.292 22.3034H136.936C136.996 22.3034 137.027 22.3338 137.027 22.3945V23.4769C137.027 24.3504 136.822 25.1479 136.411 25.8695C135.994 26.5834 135.443 27.1569 134.759 27.5898C134.076 28.0152 133.305 28.2279 132.447 28.2279ZM145.142 28.2279C144.314 28.2279 143.551 28.0152 142.852 27.5898C142.161 27.1645 141.603 26.5986 141.177 25.8923C140.76 25.1783 140.551 24.3959 140.551 23.5452L140.574 16.151C140.574 15.2852 140.783 14.5066 141.2 13.8154C141.61 13.1166 142.165 12.5584 142.864 12.1406C143.562 11.7153 144.322 11.5026 145.142 11.5026C145.993 11.5026 146.756 11.7115 147.432 12.1292C148.116 12.547 148.663 13.109 149.073 13.8154C149.491 14.5142 149.7 15.2928 149.7 16.151L149.722 23.5452C149.722 24.3959 149.517 25.1745 149.107 25.8809C148.689 26.5948 148.135 27.1645 147.444 27.5898C146.753 28.0152 145.985 28.2279 145.142 28.2279ZM145.142 25.4137C145.613 25.4137 146.023 25.2238 146.373 24.8441C146.722 24.4567 146.897 24.0238 146.897 23.5452L146.874 16.151C146.874 15.6345 146.711 15.1978 146.384 14.8408C146.058 14.4838 145.644 14.3053 145.142 14.3053C144.664 14.3053 144.254 14.48 143.912 14.8294C143.57 15.1788 143.399 15.6194 143.399 16.151V23.5452C143.399 24.0541 143.57 24.4947 143.912 24.8669C144.254 25.2314 144.664 25.4137 145.142 25.4137ZM161.222 28H153.679C153.619 28 153.588 27.962 153.588 27.8861L153.611 11.8786C153.611 11.8026 153.649 11.7646 153.725 11.7646H156.323C156.399 11.7646 156.437 11.8026 156.437 11.8786L156.414 25.1289H161.222C161.298 25.1289 161.336 25.1669 161.336 25.2428V27.8861C161.336 27.962 161.298 28 161.222 28ZM172.596 28H165.054C164.993 28 164.962 27.962 164.962 27.8861L164.985 11.8786C164.985 11.8026 165.023 11.7646 165.099 11.7646H167.697C167.773 11.7646 167.811 11.8026 167.811 11.8786L167.788 25.1289H172.596C172.672 25.1289 172.71 25.1669 172.71 25.2428V27.8861C172.71 27.962 172.672 28 172.596 28ZM183.97 28H176.428C176.367 28 176.337 27.962 176.337 27.8861L176.359 11.8558C176.359 11.795 176.39 11.7646 176.45 11.7646H183.947C184.008 11.7646 184.038 11.8026 184.038 11.8786V14.4876C184.038 14.5484 184.008 14.5788 183.947 14.5788H179.162V18.2246H183.947C184.008 18.2246 184.038 18.255 184.038 18.3158L184.061 20.959C184.061 21.0197 184.031 21.0501 183.97 21.0501H179.162V25.1289H183.97C184.031 25.1289 184.061 25.1669 184.061 25.2428V27.9089C184.061 27.9696 184.031 28 183.97 28ZM192.53 28.2279C191.687 28.2279 190.916 28.0152 190.217 27.5898C189.526 27.1645 188.975 26.5948 188.565 25.8809C188.163 25.1593 187.961 24.358 187.961 23.4769L187.984 16.1966C187.984 15.3307 188.182 14.5484 188.577 13.8496C188.971 13.1432 189.515 12.5774 190.206 12.152C190.905 11.7191 191.679 11.5026 192.53 11.5026C193.396 11.5026 194.167 11.7115 194.843 12.1292C195.526 12.547 196.069 13.1128 196.472 13.8268C196.882 14.5332 197.087 15.3231 197.087 16.1966V17.2676C197.087 17.3283 197.057 17.3587 196.996 17.3587H194.376C194.315 17.3587 194.285 17.3283 194.285 17.2676V16.1966C194.285 15.6801 194.117 15.2358 193.783 14.8636C193.449 14.4914 193.031 14.3053 192.53 14.3053C191.975 14.3053 191.55 14.4952 191.254 14.875C190.958 15.2548 190.81 15.6953 190.81 16.1966V23.4769C190.81 24.0465 190.977 24.5137 191.311 24.8783C191.645 25.2352 192.051 25.4137 192.53 25.4137C193.031 25.4137 193.449 25.2163 193.783 24.8213C194.117 24.4187 194.285 23.9706 194.285 23.4769V22.3945C194.285 22.3338 194.315 22.3034 194.376 22.3034H197.019C197.08 22.3034 197.11 22.3338 197.11 22.3945V23.4769C197.11 24.3504 196.905 25.1479 196.495 25.8695C196.077 26.5834 195.526 27.1569 194.843 27.5898C194.159 28.0152 193.388 28.2279 192.53 28.2279ZM205.886 28H203.255C203.186 28 203.152 27.962 203.152 27.8861V14.5788H200.121C200.046 14.5788 200.008 14.5408 200.008 14.4648L200.03 11.8558C200.03 11.795 200.061 11.7646 200.121 11.7646H208.985C209.069 11.7646 209.111 11.795 209.111 11.8558V14.4648C209.111 14.5408 209.08 14.5788 209.02 14.5788H205.955L205.978 27.8861C205.978 27.962 205.947 28 205.886 28ZM215.107 28H212.464C212.388 28 212.35 27.962 212.35 27.8861L212.373 11.8558C212.373 11.795 212.403 11.7646 212.464 11.7646H215.084C215.145 11.7646 215.176 11.795 215.176 11.8558L215.198 27.8861C215.198 27.962 215.168 28 215.107 28ZM224.795 28H221.97C221.901 28 221.863 27.962 221.856 27.8861L218.631 11.8558C218.616 11.795 218.647 11.7646 218.723 11.7646H221.366C221.427 11.7646 221.464 11.795 221.48 11.8558L223.394 22.5426L225.262 11.8558C225.277 11.795 225.315 11.7646 225.376 11.7646H227.985C228.069 11.7646 228.099 11.795 228.076 11.8558L224.909 27.8861C224.901 27.962 224.863 28 224.795 28ZM239.177 28H231.635C231.574 28 231.544 27.962 231.544 27.8861L231.566 11.8558C231.566 11.795 231.597 11.7646 231.658 11.7646H239.154C239.215 11.7646 239.245 11.8026 239.245 11.8786V14.4876C239.245 14.5484 239.215 14.5788 239.154 14.5788H234.369V18.2246H239.154C239.215 18.2246 239.245 18.255 239.245 18.3158L239.268 20.959C239.268 21.0197 239.238 21.0501 239.177 21.0501H234.369V25.1289H239.177C239.238 25.1289 239.268 25.1669 239.268 25.2428V27.9089C239.268 27.9696 239.238 28 239.177 28Z" fill="#16182A"/>
</svg>
